<?xml version="1.0" encoding="utf-8"?>
<!-- Generator: Adobe Illustrator 25.2.0, SVG Export Plug-In . SVG Version: 6.00 Build 0)  -->
<svg version="1.1" id="Layer_1" xmlns="http://www.w3.org/2000/svg" xmlns:xlink="http://www.w3.org/1999/xlink" x="0px" y="0px"
	 viewBox="0 0 72 72" style="enable-background:new 0 0 72 72;" xml:space="preserve">
<style type="text/css">
	.st0{fill:#EB008B;}
</style>
<path class="st0" d="M68.5,66.9h-65c-1.1,0-2-0.9-2-2V7.1c0-1.1,0.9-2,2-2h65c1.1,0,2,0.9,2,2v57.9C70.5,66,69.6,66.9,68.5,66.9z
	 M5.5,62.9h61V9.1h-61V62.9z"/>
<g>
	<path class="st0" d="M24.9,19.1c0.1,2.4-1.7,4.3-4.5,4.3c-2.5,0-4.2-1.9-4.2-4.3c0-2.5,1.8-4.4,4.4-4.4
		C23.2,14.7,24.9,16.6,24.9,19.1z"/>
	<rect x="16.8" y="28" class="st0" width="8" height="26.9"/>
	<path class="st0" d="M31.1,35.2c0-2.8,0-5-0.2-7.3h5.9l0.3,4.4h0.1c1.3-2.5,4.4-5,8.9-5c3.7,0,11,2.2,11,11.4v16h-6.4V42.5
		c0-4.3-1.6-7.9-6.2-7.9c-3.2,0-5.7,2.3-6.5,5c-0.2,0.6-0.3,1.4-0.3,2.3v13h-6.4L31.1,35.2L31.1,35.2z"/>
</g>
</svg>
