<?xml version="1.0" encoding="utf-8"?>
<!-- Generator: Adobe Illustrator 25.2.0, SVG Export Plug-In . SVG Version: 6.00 Build 0)  -->
<svg version="1.1" id="Layer_1" xmlns="http://www.w3.org/2000/svg" xmlns:xlink="http://www.w3.org/1999/xlink" x="0px" y="0px"
	 viewBox="0 0 72 72" style="enable-background:new 0 0 72 72;" xml:space="preserve">
<style type="text/css">
	.st0{fill:#EB008B;}
</style>
<path class="st0" d="M67.5,66h-63c-1.1,0-2-0.9-2-2V8c0-1.1,0.9-2,2-2h63c1.1,0,2,0.9,2,2V64C69.5,65.2,68.6,66,67.5,66z M6.5,62h59
	V10h-59V62z"/>
<g>
	<path class="st0" d="M13.5,22.5c2.3,0.5,4.5,1.1,6.7,1.8c1.8,1.2,3.7,2.3,5.6,3.5l11.2,7l-2.1,0l11.7-6.9l5.8-3.4
		c2.2-0.6,4.5-1.3,6.8-1.7c-1.5,1.8-3.2,3.5-4.8,5.2l-5.8,3.5l-11.7,6.9l-1,0.6l-1-0.6l-11.2-7c-1.9-1.1-3.7-2.4-5.6-3.5
		C16.4,26,14.9,24.4,13.5,22.5z"/>
</g>
</svg>
