<?xml version="1.0" encoding="utf-8"?>
<!-- Generator: Adobe Illustrator 25.2.0, SVG Export Plug-In . SVG Version: 6.00 Build 0)  -->
<svg version="1.1" id="Layer_1" xmlns="http://www.w3.org/2000/svg" xmlns:xlink="http://www.w3.org/1999/xlink" x="0px" y="0px"
	 viewBox="0 0 144 144" style="enable-background:new 0 0 144 144;" xml:space="preserve">
<style type="text/css">
	.st0{fill:#FF0068;}
</style>
<path class="st0" d="M72.5,136C36.4,136,7,106.6,7,70.5C7,34.4,36.4,5,72.5,5C108.6,5,138,34.4,138,70.5
	C138,106.6,108.6,136,72.5,136z M72.5,10C39.1,10,12,37.1,12,70.5c0,33.4,27.1,60.5,60.5,60.5c33.4,0,60.5-27.1,60.5-60.5
	C133,37.1,105.9,10,72.5,10z"/>
<path class="st0" d="M74.5,47.1c-7.2,0-13.7-1.3-19.3-3.1c-17.3-5.5-29-16.2-29.5-16.7l3.4-3.7c0.1,0.1,11.4,10.5,27.7,15.6
	c21.6,6.8,41.3,1.5,58.8-15.6l3.5,3.6C103.8,42.4,88.1,47.1,74.5,47.1z"/>
<path class="st0" d="M116.7,117.6c-0.2-0.2-20.1-20.3-45.3-20.3c-0.2,0-0.4,0-0.6,0c-14.5,0.2-28.2,7-40.5,20.3l-3.7-3.4
	C40,99.9,54.8,92.5,70.8,92.3c0.2,0,0.4,0,0.6,0c27.4,0,48,20.9,48.9,21.8L116.7,117.6z"/>
<rect x="9.5" y="66" class="st0" width="126" height="5"/>
<path class="st0" d="M74.3,135.7l-3.6-3.5c0.2-0.2,15.5-16.4,23.1-39.7c10-30.8,2.3-58.9-23-83.3l3.5-3.6
	c33.5,32.3,31.7,66,24.3,88.6C90.5,118.6,75,135,74.3,135.7z"/>
<path class="st0" d="M72.2,135.7c-19.8-20.1-29.7-42-29.3-65C43.4,33.1,71,6.3,72.2,5.1l3.5,3.6C75.4,9,48.3,35.3,47.8,70.9
	c-0.3,21.6,9.1,42.2,27.9,61.3L72.2,135.7z"/>
</svg>
